<?xml version="1.0" standalone="no"?><!DOCTYPE svg PUBLIC "-//W3C//DTD SVG 1.1//EN" "http://www.w3.org/Graphics/SVG/1.1/DTD/svg11.dtd"><svg t="1631864650618" class="icon" viewBox="0 0 1024 1024" version="1.1" xmlns="http://www.w3.org/2000/svg" p-id="1200" xmlns:xlink="http://www.w3.org/1999/xlink" width="200" height="200"><defs><style type="text/css"></style></defs><path d="M204.8 921.59999999L819.2 921.59999999C875.52 921.6 921.6 875.52 921.59999999 819.2l0-614.4c0-56.32000001-46.08-102.4-102.39999999-102.39999999l-614.4 0c-56.32000001 0-102.4 46.08-102.39999999 102.39999999L102.40000001 819.2c0 56.32000001 46.08 102.4 102.39999999 102.39999999z m-51.2-716.79999999c0-28.16 23.04-51.2 51.2-51.2L819.2 153.6c28.16 0 51.2 23.04 51.2 51.2L870.4 819.2c0 28.16-23.04 51.2-51.2 51.2l-614.4 0c-28.16 0-51.2-23.04-51.2-51.2l0-614.4z m212.48 555.51999999c10.24 10.24 25.6 10.24 35.84 1e-8l230.4-227.84c5.12-7.68 7.68-12.8 7.68-20.48 0-7.68-2.56-15.36-7.68-20.48l-230.4-227.84c-10.24-10.24-25.6-10.24-35.84 1e-8-10.24 10.24-10.24 25.6 0 35.83999999L578.56000001 512l-212.48000001 212.48c-10.24 10.24-10.24 25.6 0 35.83999999z" fill="#707070" p-id="1201"></path></svg>