<?xml version="1.0" standalone="no"?><!DOCTYPE svg PUBLIC "-//W3C//DTD SVG 1.1//EN" "http://www.w3.org/Graphics/SVG/1.1/DTD/svg11.dtd"><svg t="1631864642038" class="icon" viewBox="0 0 1024 1024" version="1.1" xmlns="http://www.w3.org/2000/svg" p-id="1058" xmlns:xlink="http://www.w3.org/1999/xlink" width="200" height="200"><defs><style type="text/css"></style></defs><path d="M819.2 102.4H204.8C148.48 102.4 102.4 148.48 102.4 204.8v614.4c0 56.32 46.08 102.4 102.4 102.4h614.4c56.32 0 102.4-46.08 102.4-102.4V204.8c0-56.32-46.08-102.4-102.4-102.4z m51.2 716.8c0 28.16-23.04 51.2-51.2 51.2H204.8c-28.16 0-51.2-23.04-51.2-51.2V204.8c0-28.16 23.04-51.2 51.2-51.2h614.4c28.16 0 51.2 23.04 51.2 51.2v614.4z m-212.48-555.52c-10.24-10.24-25.6-10.24-35.84 0l-230.4 227.84c-5.12 7.68-7.68 12.8-7.68 20.48 0 7.68 2.56 15.36 7.68 20.48l230.4 227.84c10.24 10.24 25.6 10.24 35.84 0 10.24-10.24 10.24-25.6 0-35.84L445.44 512l212.48-212.48c10.24-10.24 10.24-25.6 0-35.84z" fill="#707070" p-id="1059"></path></svg>